<svg xmlns="http://www.w3.org/2000/svg" viewBox="0 0 306.5 56.79"><defs><style>.a{fill:#00205b;}</style></defs><title>Airbus logo</title><path class="a" d="M500.09,503c0-10.41-6.78-18.3-20.82-18.3H451v54.42h13.25V496.54h15c5.52,0,7.57,3.15,7.57,6.78,0,3.79-2.05,6.78-7.57,6.78H466.49l18.3,29h15.14s-12.46-19.56-12.3-19.56c7.57-1.74,12.46-7.1,12.46-16.56m-71.14-18.3H442.2v54.42H428.95Zm-42.43,0-27.76,54.58h15l4.42-9.15h22.4L395,518.63h-11.2L392,501.9h.16l18.61,37.39h15.3l-27.76-54.58Zm162,26.19c4.26-2.37,6.47-6,6.47-11.52,0-8.83-6.63-14.67-17.51-14.67H506.4v54.42h32.18c11.2,0,18.61-6,18.61-15.3a13,13,0,0,0-8.68-12.94m-28.87-14.67h17.67a4.73,4.73,0,1,1,0,9.46H519.65Zm18.14,31.55H519.65v-11h18.14a5.52,5.52,0,1,1,0,11m61.36-12.62c0,8.2-3.79,12.78-11.36,12.78-7.41,0-11.2-4.57-11.2-12.78V484.71H563v29.5c0,16.88,8.83,26.19,24.92,26.19s24.92-9.31,24.92-26.19v-29.5H599.31v30.44Zm49.06-8.68c-12.62-3-15.3-3.31-15.3-6.94,0-2.84,3.15-4.1,8.52-4.1,7.1,0,14.51,1.74,18.77,4.42l4.26-11c-5.68-3.15-13.57-5.21-23-5.21-14,0-21.93,6.94-21.93,16.41,0,10.1,5.84,14.2,19.4,17,10.57,2.37,12.78,3.79,12.78,6.78,0,3.15-2.84,4.57-8.68,4.57A44.9,44.9,0,0,1,621.24,523l-4.1,11.67c6.63,3.47,16.41,5.68,26.19,5.68,13.72,0,21.93-6.31,21.93-17,.16-8.68-5.36-14.2-17-16.88" transform="translate(-358.75 -483.61)"/></svg>